<?xml version="1.0" encoding="utf-8"?>
<!-- Generator: Adobe Illustrator 21.1.0, SVG Export Plug-In . SVG Version: 6.00 Build 0)  -->
<svg version="1.1" id="Layer_1" xmlns="http://www.w3.org/2000/svg" xmlns:xlink="http://www.w3.org/1999/xlink" x="0px" y="0px"
	 viewBox="0 0 1920 1080" style="enable-background:new 0 0 1920 1080;" xml:space="preserve">
<style type="text/css">
	.st0{fill:url(#SVGID_1_);}
	.st1{fill:#6E6687;}
	.st2{fill:url(#SVGID_2_);}
	.st3{fill:url(#SVGID_3_);}
	.st4{fill:#736A8C;}
	.st5{fill:#564F81;}
	.st6{fill:url(#SVGID_4_);}
	.st7{fill:#796F94;}
	.st8{fill:url(#SVGID_5_);}
	.st9{fill:#70678F;}
	.st10{fill:#8E7C69;}
	.st11{fill:#FFC468;}
	.st12{fill:#8989AF;}
</style>
<g>
	
		<linearGradient id="SVGID_1_" gradientUnits="userSpaceOnUse" x1="960" y1="-9.094947e-13" x2="960" y2="1080" gradientTransform="matrix(1 0 0 -1 0 1080)">
		<stop  offset="0" style="stop-color:#796F94"/>
		<stop  offset="1" style="stop-color:#564F81"/>
	</linearGradient>
	<rect class="st0" width="1920" height="1080"/>
</g>
<polygon class="st1" points="1395,1080 1160.8,379 1064.5,478.5 940,1080 "/>
<g>
	
		<linearGradient id="SVGID_2_" gradientUnits="userSpaceOnUse" x1="816.8276" y1="-35.7399" x2="908.8841" y2="716.7322" gradientTransform="matrix(1 0 0 -1 0 1080)">
		<stop  offset="0" style="stop-color:#796F94"/>
		<stop  offset="0.3365" style="stop-color:#756B92"/>
		<stop  offset="0.6778" style="stop-color:#69608B"/>
		<stop  offset="1" style="stop-color:#564F81"/>
	</linearGradient>
	<polygon class="st2" points="651,1080 835.6,523.7 991.4,1080 	"/>
</g>
<image style="overflow:visible;enable-background:new    ;" width="794" height="596" xlink:href="11FA5A07.jpeg"  transform="matrix(1.3577 0 0 1.3565 2015 136)">
</image>
<g>
	<g>
		<polygon class="st1" points="835.8,524.6 835.6,523.7 705.1,917 		"/>
		<polygon class="st1" points="906.3,776.2 930.6,863.5 913,848 897,878 861,878 861,857 830,878 798,906 765,896 758,877 
			705.1,917.1 651,1080 991.4,1080 		"/>
	</g>
</g>
<g>
	
		<linearGradient id="SVGID_3_" gradientUnits="userSpaceOnUse" x1="881.758" y1="225.0004" x2="825.0103" y2="627.2512" gradientTransform="matrix(1 0 0 -1 0 1080)">
		<stop  offset="0" style="stop-color:#796F94"/>
		<stop  offset="0.3365" style="stop-color:#756B92"/>
		<stop  offset="0.6778" style="stop-color:#69608B"/>
		<stop  offset="1" style="stop-color:#564F81"/>
	</linearGradient>
	<polygon class="st3" points="836,524 836,1080 991,1080 	"/>
</g>
<polygon class="st4" points="930.6,863.5 913,848 897,878 861,878 861,857 836,873.9 836,1080 991,1080 "/>
<rect x="1985" y="-126" class="st5" width="252" height="46"/>
<g>
	
		<linearGradient id="SVGID_4_" gradientUnits="userSpaceOnUse" x1="1103.0876" y1="230.3392" x2="1192.7672" y2="785.3324" gradientTransform="matrix(1 0 0 -1 0 1080)">
		<stop  offset="0" style="stop-color:#796F94"/>
		<stop  offset="0.6643" style="stop-color:#635B88"/>
		<stop  offset="1" style="stop-color:#564F81"/>
	</linearGradient>
	<polygon class="st6" points="1061,785 1095,785 1118,756 1161,745 1249.7,645 1160.8,379 1064.5,478.5 996.1,809.1 1034,827 	"/>
</g>
<rect x="2004" y="-30" class="st7" width="252" height="46"/>
<polygon class="st4" points="1161,379 1167,1080 1395,1080 "/>
<g>
	
		<linearGradient id="SVGID_5_" gradientUnits="userSpaceOnUse" x1="1220.5431" y1="395.6029" x2="1185.036" y2="884.533" gradientTransform="matrix(1 0 0 -1 0 1080)">
		<stop  offset="0" style="stop-color:#796F94"/>
		<stop  offset="0.518" style="stop-color:#69608B"/>
		<stop  offset="1" style="stop-color:#564F81"/>
	</linearGradient>
	<polygon class="st8" points="1224,776 1250,740 1286.5,755 1161,379 1164.1,744.8 1188,740 	"/>
</g>
<g>
	<polygon class="st9" points="1282.6,1080 1252.6,972.7 1217,1080 	"/>
</g>
<circle class="st10" cx="1383" cy="321" r="63"/>
<g>
	<polygon class="st7" points="1282.8,1080 1253,973 1253,1080 	"/>
</g>
<circle class="st11" cx="1383" cy="321" r="53.7"/>
<path class="st12" d="M1407.1,360.8c0-0.3,0-0.5,0-0.8c0-16.4-13.3-29.8-29.8-29.8c-6.1,0-11.9,1.9-16.6,5.1
	c-2.1-19.8-18.8-35.2-39.1-35.2c-21.7,0-39.3,17.6-39.3,39.3c0,2.6,0.3,5.1,0.7,7.5c-17.2,4.2-30.1,19.7-30.1,38.2
	c0,21.7,17.6,39.3,39.3,39.3s89.7,0,107.5,0s32.2-14.4,32.2-32.2C1432.1,376.9,1421.4,364,1407.1,360.8z"/>
</svg>
